<svg xmlns="http://www.w3.org/2000/svg" xmlns:xlink="http://www.w3.org/1999/xlink" width="500" zoomAndPan="magnify" viewBox="0 0 375 374.999991" height="500" preserveAspectRatio="xMidYMid meet" version="1.0"><defs><clipPath id="71da88dc6c"><path d="M 50.246094 50.246094 L 324.746094 50.246094 L 324.746094 324.746094 L 50.246094 324.746094 Z M 50.246094 50.246094 " clip-rule="nonzero"/></clipPath><clipPath id="a5c9f3df51"><path d="M 324.746094 187.496094 C 324.746094 189.742188 324.691406 191.988281 324.582031 194.230469 C 324.472656 196.476562 324.304688 198.714844 324.085938 200.949219 C 323.867188 203.183594 323.589844 205.414062 323.261719 207.636719 C 322.933594 209.859375 322.546875 212.070312 322.109375 214.273438 C 321.671875 216.476562 321.179688 218.667969 320.632812 220.847656 C 320.089844 223.023438 319.488281 225.1875 318.835938 227.339844 C 318.183594 229.488281 317.480469 231.621094 316.722656 233.734375 C 315.96875 235.851562 315.160156 237.945312 314.300781 240.019531 C 313.441406 242.09375 312.53125 244.148438 311.570312 246.179688 C 310.609375 248.210938 309.597656 250.214844 308.539062 252.195312 C 307.480469 254.175781 306.375 256.132812 305.21875 258.058594 C 304.066406 259.984375 302.863281 261.882812 301.617188 263.75 C 300.367188 265.617188 299.074219 267.453125 297.738281 269.257812 C 296.398438 271.0625 295.019531 272.832031 293.59375 274.566406 C 292.167969 276.304688 290.699219 278.003906 289.191406 279.667969 C 287.683594 281.332031 286.136719 282.960938 284.546875 284.546875 C 282.960938 286.136719 281.332031 287.683594 279.667969 289.191406 C 278.003906 290.699219 276.304688 292.167969 274.566406 293.59375 C 272.832031 295.019531 271.0625 296.398438 269.257812 297.738281 C 267.453125 299.074219 265.617188 300.367188 263.75 301.617188 C 261.882812 302.863281 259.984375 304.066406 258.058594 305.21875 C 256.132812 306.375 254.175781 307.480469 252.195312 308.539062 C 250.214844 309.597656 248.210938 310.609375 246.179688 311.570312 C 244.148438 312.53125 242.09375 313.441406 240.019531 314.300781 C 237.945312 315.160156 235.851562 315.96875 233.734375 316.722656 C 231.621094 317.480469 229.488281 318.183594 227.339844 318.835938 C 225.1875 319.488281 223.023438 320.089844 220.847656 320.632812 C 218.667969 321.179688 216.476562 321.671875 214.273438 322.109375 C 212.070312 322.546875 209.859375 322.933594 207.636719 323.261719 C 205.414062 323.589844 203.183594 323.867188 200.949219 324.085938 C 198.714844 324.304688 196.476562 324.472656 194.230469 324.582031 C 191.988281 324.691406 189.742188 324.746094 187.496094 324.746094 C 185.25 324.746094 183.007812 324.691406 180.761719 324.582031 C 178.519531 324.472656 176.28125 324.304688 174.042969 324.085938 C 171.808594 323.867188 169.582031 323.589844 167.359375 323.261719 C 165.136719 322.933594 162.925781 322.546875 160.722656 322.109375 C 158.519531 321.671875 156.328125 321.179688 154.148438 320.632812 C 151.96875 320.089844 149.804688 319.488281 147.65625 318.835938 C 145.507812 318.183594 143.375 317.480469 141.257812 316.722656 C 139.144531 315.96875 137.050781 315.160156 134.972656 314.300781 C 132.898438 313.441406 130.84375 312.53125 128.816406 311.570312 C 126.785156 310.609375 124.777344 309.597656 122.796875 308.539062 C 120.816406 307.480469 118.863281 306.375 116.9375 305.21875 C 115.011719 304.066406 113.113281 302.863281 111.246094 301.617188 C 109.378906 300.367188 107.542969 299.074219 105.738281 297.738281 C 103.933594 296.398438 102.164062 295.019531 100.425781 293.59375 C 98.691406 292.167969 96.988281 290.699219 95.324219 289.191406 C 93.660156 287.683594 92.035156 286.136719 90.445312 284.546875 C 88.859375 282.960938 87.308594 281.332031 85.800781 279.667969 C 84.292969 278.003906 82.828125 276.304688 81.402344 274.566406 C 79.976562 272.832031 78.59375 271.0625 77.257812 269.257812 C 75.917969 267.453125 74.625 265.617188 73.378906 263.75 C 72.128906 261.882812 70.929688 259.984375 69.773438 258.058594 C 68.617188 256.132812 67.511719 254.175781 66.453125 252.195312 C 65.394531 250.214844 64.386719 248.210938 63.425781 246.179688 C 62.464844 244.148438 61.554688 242.09375 60.695312 240.019531 C 59.835938 237.945312 59.027344 235.851562 58.269531 233.734375 C 57.511719 231.621094 56.808594 229.488281 56.15625 227.339844 C 55.503906 225.1875 54.90625 223.023438 54.359375 220.847656 C 53.816406 218.667969 53.324219 216.476562 52.882812 214.273438 C 52.445312 212.070312 52.0625 209.859375 51.734375 207.636719 C 51.402344 205.414062 51.128906 203.183594 50.90625 200.949219 C 50.6875 198.714844 50.523438 196.476562 50.414062 194.230469 C 50.300781 191.988281 50.246094 189.742188 50.246094 187.496094 C 50.246094 185.25 50.300781 183.007812 50.414062 180.761719 C 50.523438 178.519531 50.6875 176.28125 50.90625 174.042969 C 51.128906 171.808594 51.402344 169.582031 51.734375 167.359375 C 52.0625 165.136719 52.445312 162.925781 52.882812 160.722656 C 53.324219 158.519531 53.816406 156.328125 54.359375 154.148438 C 54.90625 151.96875 55.503906 149.804688 56.15625 147.65625 C 56.808594 145.507812 57.511719 143.375 58.269531 141.257812 C 59.027344 139.144531 59.835938 137.050781 60.695312 134.972656 C 61.554688 132.898438 62.464844 130.84375 63.425781 128.816406 C 64.386719 126.785156 65.394531 124.777344 66.453125 122.796875 C 67.511719 120.816406 68.617188 118.863281 69.773438 116.9375 C 70.929688 115.011719 72.128906 113.113281 73.378906 111.246094 C 74.625 109.378906 75.917969 107.542969 77.257812 105.738281 C 78.59375 103.933594 79.976562 102.164062 81.402344 100.425781 C 82.828125 98.691406 84.292969 96.988281 85.800781 95.324219 C 87.308594 93.660156 88.859375 92.035156 90.445312 90.445312 C 92.035156 88.859375 93.660156 87.308594 95.324219 85.800781 C 96.988281 84.292969 98.691406 82.828125 100.425781 81.402344 C 102.164062 79.976562 103.933594 78.59375 105.738281 77.257812 C 107.542969 75.917969 109.378906 74.625 111.246094 73.378906 C 113.113281 72.128906 115.011719 70.929688 116.9375 69.773438 C 118.863281 68.617188 120.816406 67.511719 122.796875 66.453125 C 124.777344 65.394531 126.785156 64.386719 128.816406 63.425781 C 130.84375 62.464844 132.898438 61.554688 134.972656 60.695312 C 137.050781 59.835938 139.144531 59.027344 141.257812 58.269531 C 143.375 57.511719 145.507812 56.808594 147.65625 56.15625 C 149.804688 55.503906 151.96875 54.90625 154.148438 54.359375 C 156.328125 53.816406 158.519531 53.324219 160.722656 52.882812 C 162.925781 52.445312 165.136719 52.0625 167.359375 51.734375 C 169.582031 51.402344 171.808594 51.128906 174.042969 50.90625 C 176.28125 50.6875 178.519531 50.523438 180.761719 50.414062 C 183.007812 50.300781 185.25 50.246094 187.496094 50.246094 C 189.742188 50.246094 191.988281 50.300781 194.230469 50.414062 C 196.476562 50.523438 198.714844 50.6875 200.949219 50.90625 C 203.183594 51.128906 205.414062 51.402344 207.636719 51.734375 C 209.859375 52.0625 212.070312 52.445312 214.273438 52.882812 C 216.476562 53.324219 218.667969 53.816406 220.847656 54.359375 C 223.023438 54.90625 225.1875 55.503906 227.339844 56.15625 C 229.488281 56.808594 231.621094 57.511719 233.734375 58.269531 C 235.851562 59.027344 237.945312 59.835938 240.019531 60.695312 C 242.09375 61.554688 244.148438 62.464844 246.179688 63.425781 C 248.210938 64.386719 250.214844 65.394531 252.195312 66.453125 C 254.175781 67.511719 256.132812 68.617188 258.058594 69.773438 C 259.984375 70.929688 261.882812 72.128906 263.75 73.378906 C 265.617188 74.625 267.453125 75.917969 269.257812 77.257812 C 271.0625 78.59375 272.832031 79.976562 274.566406 81.402344 C 276.304688 82.828125 278.003906 84.292969 279.667969 85.800781 C 281.332031 87.308594 282.960938 88.859375 284.546875 90.445312 C 286.136719 92.035156 287.683594 93.660156 289.191406 95.324219 C 290.699219 96.988281 292.167969 98.691406 293.59375 100.425781 C 295.019531 102.164062 296.398438 103.933594 297.738281 105.738281 C 299.074219 107.542969 300.367188 109.378906 301.617188 111.246094 C 302.863281 113.113281 304.066406 115.011719 305.21875 116.9375 C 306.375 118.863281 307.480469 120.816406 308.539062 122.796875 C 309.597656 124.777344 310.609375 126.785156 311.570312 128.816406 C 312.53125 130.84375 313.441406 132.898438 314.300781 134.972656 C 315.160156 137.050781 315.96875 139.144531 316.722656 141.257812 C 317.480469 143.375 318.183594 145.507812 318.835938 147.65625 C 319.488281 149.804688 320.089844 151.96875 320.632812 154.148438 C 321.179688 156.328125 321.671875 158.519531 322.109375 160.722656 C 322.546875 162.925781 322.933594 165.136719 323.261719 167.359375 C 323.589844 169.582031 323.867188 171.808594 324.085938 174.042969 C 324.304688 176.28125 324.472656 178.519531 324.582031 180.761719 C 324.691406 183.007812 324.746094 185.25 324.746094 187.496094 Z M 324.746094 187.496094 " clip-rule="nonzero"/></clipPath><linearGradient x1="1333.32996" gradientTransform="matrix(0.102963, 0, 0, 0.102963, 50.247081, 50.247069)" y1="0.0000457092" x2="1333.32996" gradientUnits="userSpaceOnUse" y2="2665.999981" id="d57c130120"><stop stop-opacity="1" stop-color="rgb(39.99939%, 39.99939%, 79.998779%)" offset="0"/><stop stop-opacity="1" stop-color="rgb(40.458679%, 39.692688%, 80.151367%)" offset="0.00390625"/><stop stop-opacity="1" stop-color="rgb(40.917969%, 39.385986%, 80.305481%)" offset="0.0078125"/><stop stop-opacity="1" stop-color="rgb(41.377258%, 39.079285%, 80.458069%)" offset="0.0117188"/><stop stop-opacity="1" stop-color="rgb(41.836548%, 38.774109%, 80.612183%)" offset="0.015625"/><stop stop-opacity="1" stop-color="rgb(42.295837%, 38.467407%, 80.764771%)" offset="0.0195313"/><stop stop-opacity="1" stop-color="rgb(42.756653%, 38.160706%, 80.918884%)" offset="0.0234375"/><stop stop-opacity="1" stop-color="rgb(43.215942%, 37.854004%, 81.071472%)" offset="0.0273438"/><stop stop-opacity="1" stop-color="rgb(43.675232%, 37.548828%, 81.22406%)" offset="0.03125"/><stop stop-opacity="1" stop-color="rgb(44.134521%, 37.242126%, 81.376648%)" offset="0.0351562"/><stop stop-opacity="1" stop-color="rgb(44.593811%, 36.935425%, 81.530762%)" offset="0.0390625"/><stop stop-opacity="1" stop-color="rgb(45.053101%, 36.628723%, 81.68335%)" offset="0.0429687"/><stop stop-opacity="1" stop-color="rgb(45.51239%, 36.323547%, 81.837463%)" offset="0.046875"/><stop stop-opacity="1" stop-color="rgb(45.97168%, 36.016846%, 81.990051%)" offset="0.0507812"/><stop stop-opacity="1" stop-color="rgb(46.430969%, 35.71167%, 82.142639%)" offset="0.0546875"/><stop stop-opacity="1" stop-color="rgb(46.890259%, 35.404968%, 82.295227%)" offset="0.0585937"/><stop stop-opacity="1" stop-color="rgb(47.351074%, 35.098267%, 82.449341%)" offset="0.0625"/><stop stop-opacity="1" stop-color="rgb(47.810364%, 34.791565%, 82.601929%)" offset="0.0664062"/><stop stop-opacity="1" stop-color="rgb(48.269653%, 34.486389%, 82.756042%)" offset="0.0703125"/><stop stop-opacity="1" stop-color="rgb(48.728943%, 34.179688%, 82.90863%)" offset="0.0742188"/><stop stop-opacity="1" stop-color="rgb(49.188232%, 33.872986%, 83.062744%)" offset="0.078125"/><stop stop-opacity="1" stop-color="rgb(49.647522%, 33.566284%, 83.215332%)" offset="0.0820312"/><stop stop-opacity="1" stop-color="rgb(50.106812%, 33.261108%, 83.36792%)" offset="0.0859375"/><stop stop-opacity="1" stop-color="rgb(50.566101%, 32.954407%, 83.520508%)" offset="0.0898438"/><stop stop-opacity="1" stop-color="rgb(51.025391%, 32.647705%, 83.674622%)" offset="0.09375"/><stop stop-opacity="1" stop-color="rgb(51.48468%, 32.341003%, 83.827209%)" offset="0.0976562"/><stop stop-opacity="1" stop-color="rgb(51.945496%, 32.035828%, 83.981323%)" offset="0.101562"/><stop stop-opacity="1" stop-color="rgb(52.404785%, 31.729126%, 84.133911%)" offset="0.105469"/><stop stop-opacity="1" stop-color="rgb(52.864075%, 31.422424%, 84.288025%)" offset="0.109375"/><stop stop-opacity="1" stop-color="rgb(53.323364%, 31.115723%, 84.440613%)" offset="0.113281"/><stop stop-opacity="1" stop-color="rgb(53.782654%, 30.810547%, 84.593201%)" offset="0.117188"/><stop stop-opacity="1" stop-color="rgb(54.241943%, 30.503845%, 84.745789%)" offset="0.121094"/><stop stop-opacity="1" stop-color="rgb(54.701233%, 30.197144%, 84.899902%)" offset="0.125"/><stop stop-opacity="1" stop-color="rgb(55.160522%, 29.890442%, 85.05249%)" offset="0.128906"/><stop stop-opacity="1" stop-color="rgb(55.619812%, 29.585266%, 85.206604%)" offset="0.132812"/><stop stop-opacity="1" stop-color="rgb(56.079102%, 29.278564%, 85.359192%)" offset="0.136719"/><stop stop-opacity="1" stop-color="rgb(56.539917%, 28.971863%, 85.513306%)" offset="0.140625"/><stop stop-opacity="1" stop-color="rgb(56.999207%, 28.665161%, 85.665894%)" offset="0.144531"/><stop stop-opacity="1" stop-color="rgb(57.458496%, 28.359985%, 85.818481%)" offset="0.148438"/><stop stop-opacity="1" stop-color="rgb(57.917786%, 28.053284%, 85.971069%)" offset="0.152344"/><stop stop-opacity="1" stop-color="rgb(58.377075%, 27.746582%, 86.125183%)" offset="0.15625"/><stop stop-opacity="1" stop-color="rgb(58.836365%, 27.43988%, 86.277771%)" offset="0.160156"/><stop stop-opacity="1" stop-color="rgb(59.295654%, 27.134705%, 86.431885%)" offset="0.164062"/><stop stop-opacity="1" stop-color="rgb(59.754944%, 26.828003%, 86.584473%)" offset="0.167969"/><stop stop-opacity="1" stop-color="rgb(60.214233%, 26.522827%, 86.737061%)" offset="0.171875"/><stop stop-opacity="1" stop-color="rgb(60.673523%, 26.216125%, 86.889648%)" offset="0.175781"/><stop stop-opacity="1" stop-color="rgb(61.134338%, 25.909424%, 87.043762%)" offset="0.179688"/><stop stop-opacity="1" stop-color="rgb(61.593628%, 25.602722%, 87.19635%)" offset="0.183594"/><stop stop-opacity="1" stop-color="rgb(62.052917%, 25.297546%, 87.350464%)" offset="0.1875"/><stop stop-opacity="1" stop-color="rgb(62.512207%, 24.990845%, 87.503052%)" offset="0.191406"/><stop stop-opacity="1" stop-color="rgb(62.971497%, 24.684143%, 87.657166%)" offset="0.195313"/><stop stop-opacity="1" stop-color="rgb(63.430786%, 24.377441%, 87.809753%)" offset="0.199219"/><stop stop-opacity="1" stop-color="rgb(63.890076%, 24.072266%, 87.962341%)" offset="0.203125"/><stop stop-opacity="1" stop-color="rgb(64.349365%, 23.765564%, 88.114929%)" offset="0.207031"/><stop stop-opacity="1" stop-color="rgb(64.808655%, 23.458862%, 88.269043%)" offset="0.210938"/><stop stop-opacity="1" stop-color="rgb(65.267944%, 23.152161%, 88.421631%)" offset="0.214844"/><stop stop-opacity="1" stop-color="rgb(65.72876%, 22.846985%, 88.575745%)" offset="0.21875"/><stop stop-opacity="1" stop-color="rgb(66.188049%, 22.540283%, 88.728333%)" offset="0.222656"/><stop stop-opacity="1" stop-color="rgb(66.647339%, 22.233582%, 88.882446%)" offset="0.226563"/><stop stop-opacity="1" stop-color="rgb(67.106628%, 21.92688%, 89.035034%)" offset="0.230469"/><stop stop-opacity="1" stop-color="rgb(67.565918%, 21.621704%, 89.187622%)" offset="0.234375"/><stop stop-opacity="1" stop-color="rgb(68.025208%, 21.315002%, 89.34021%)" offset="0.238281"/><stop stop-opacity="1" stop-color="rgb(68.484497%, 21.008301%, 89.494324%)" offset="0.242188"/><stop stop-opacity="1" stop-color="rgb(68.943787%, 20.701599%, 89.646912%)" offset="0.246094"/><stop stop-opacity="1" stop-color="rgb(69.403076%, 20.396423%, 89.801025%)" offset="0.25"/><stop stop-opacity="1" stop-color="rgb(69.862366%, 20.089722%, 89.953613%)" offset="0.253906"/><stop stop-opacity="1" stop-color="rgb(70.323181%, 19.78302%, 90.107727%)" offset="0.257813"/><stop stop-opacity="1" stop-color="rgb(70.782471%, 19.476318%, 90.260315%)" offset="0.261719"/><stop stop-opacity="1" stop-color="rgb(71.24176%, 19.171143%, 90.412903%)" offset="0.265625"/><stop stop-opacity="1" stop-color="rgb(71.70105%, 18.864441%, 90.565491%)" offset="0.269531"/><stop stop-opacity="1" stop-color="rgb(72.160339%, 18.557739%, 90.719604%)" offset="0.273438"/><stop stop-opacity="1" stop-color="rgb(72.619629%, 18.251038%, 90.872192%)" offset="0.277344"/><stop stop-opacity="1" stop-color="rgb(73.078918%, 17.945862%, 91.026306%)" offset="0.28125"/><stop stop-opacity="1" stop-color="rgb(73.538208%, 17.63916%, 91.178894%)" offset="0.285156"/><stop stop-opacity="1" stop-color="rgb(73.997498%, 17.333984%, 91.331482%)" offset="0.289062"/><stop stop-opacity="1" stop-color="rgb(74.456787%, 17.027283%, 91.48407%)" offset="0.292969"/><stop stop-opacity="1" stop-color="rgb(74.917603%, 16.720581%, 91.638184%)" offset="0.296875"/><stop stop-opacity="1" stop-color="rgb(75.376892%, 16.413879%, 91.790771%)" offset="0.300781"/><stop stop-opacity="1" stop-color="rgb(75.836182%, 16.108704%, 91.944885%)" offset="0.304688"/><stop stop-opacity="1" stop-color="rgb(76.295471%, 15.802002%, 92.097473%)" offset="0.308594"/><stop stop-opacity="1" stop-color="rgb(76.754761%, 15.4953%, 92.251587%)" offset="0.3125"/><stop stop-opacity="1" stop-color="rgb(77.21405%, 15.188599%, 92.404175%)" offset="0.316406"/><stop stop-opacity="1" stop-color="rgb(77.67334%, 14.883423%, 92.556763%)" offset="0.320312"/><stop stop-opacity="1" stop-color="rgb(78.132629%, 14.576721%, 92.709351%)" offset="0.324219"/><stop stop-opacity="1" stop-color="rgb(78.591919%, 14.27002%, 92.863464%)" offset="0.328125"/><stop stop-opacity="1" stop-color="rgb(79.051208%, 13.963318%, 93.016052%)" offset="0.332031"/><stop stop-opacity="1" stop-color="rgb(79.512024%, 13.658142%, 93.170166%)" offset="0.335938"/><stop stop-opacity="1" stop-color="rgb(79.971313%, 13.35144%, 93.322754%)" offset="0.339844"/><stop stop-opacity="1" stop-color="rgb(80.430603%, 13.044739%, 93.476868%)" offset="0.34375"/><stop stop-opacity="1" stop-color="rgb(80.889893%, 12.738037%, 93.629456%)" offset="0.347656"/><stop stop-opacity="1" stop-color="rgb(81.349182%, 12.432861%, 93.782043%)" offset="0.351563"/><stop stop-opacity="1" stop-color="rgb(81.808472%, 12.12616%, 93.934631%)" offset="0.355469"/><stop stop-opacity="1" stop-color="rgb(82.267761%, 11.819458%, 94.088745%)" offset="0.359375"/><stop stop-opacity="1" stop-color="rgb(82.727051%, 11.512756%, 94.241333%)" offset="0.363281"/><stop stop-opacity="1" stop-color="rgb(83.18634%, 11.207581%, 94.395447%)" offset="0.367188"/><stop stop-opacity="1" stop-color="rgb(83.64563%, 10.900879%, 94.548035%)" offset="0.371094"/><stop stop-opacity="1" stop-color="rgb(84.106445%, 10.594177%, 94.702148%)" offset="0.375"/><stop stop-opacity="1" stop-color="rgb(84.565735%, 10.287476%, 94.854736%)" offset="0.378906"/><stop stop-opacity="1" stop-color="rgb(85.025024%, 9.9823%, 95.007324%)" offset="0.382813"/><stop stop-opacity="1" stop-color="rgb(85.484314%, 9.675598%, 95.159912%)" offset="0.386719"/><stop stop-opacity="1" stop-color="rgb(85.943604%, 9.368896%, 95.314026%)" offset="0.390625"/><stop stop-opacity="1" stop-color="rgb(86.402893%, 9.062195%, 95.466614%)" offset="0.394531"/><stop stop-opacity="1" stop-color="rgb(86.862183%, 8.757019%, 95.620728%)" offset="0.398438"/><stop stop-opacity="1" stop-color="rgb(87.321472%, 8.450317%, 95.773315%)" offset="0.402344"/><stop stop-opacity="1" stop-color="rgb(87.780762%, 8.145142%, 95.925903%)" offset="0.40625"/><stop stop-opacity="1" stop-color="rgb(88.240051%, 7.83844%, 96.078491%)" offset="0.410156"/><stop stop-opacity="1" stop-color="rgb(88.700867%, 7.531738%, 96.232605%)" offset="0.414063"/><stop stop-opacity="1" stop-color="rgb(89.160156%, 7.225037%, 96.385193%)" offset="0.417969"/><stop stop-opacity="1" stop-color="rgb(89.619446%, 6.919861%, 96.539307%)" offset="0.421875"/><stop stop-opacity="1" stop-color="rgb(90.078735%, 6.613159%, 96.691895%)" offset="0.425781"/><stop stop-opacity="1" stop-color="rgb(90.538025%, 6.306458%, 96.846008%)" offset="0.429688"/><stop stop-opacity="1" stop-color="rgb(90.997314%, 5.999756%, 96.998596%)" offset="0.433594"/><stop stop-opacity="1" stop-color="rgb(91.456604%, 5.69458%, 97.151184%)" offset="0.4375"/><stop stop-opacity="1" stop-color="rgb(91.915894%, 5.387878%, 97.303772%)" offset="0.441406"/><stop stop-opacity="1" stop-color="rgb(92.375183%, 5.081177%, 97.457886%)" offset="0.445312"/><stop stop-opacity="1" stop-color="rgb(92.834473%, 4.774475%, 97.610474%)" offset="0.449219"/><stop stop-opacity="1" stop-color="rgb(93.295288%, 4.469299%, 97.764587%)" offset="0.453125"/><stop stop-opacity="1" stop-color="rgb(93.754578%, 4.162598%, 97.917175%)" offset="0.457031"/><stop stop-opacity="1" stop-color="rgb(94.213867%, 3.855896%, 98.071289%)" offset="0.460938"/><stop stop-opacity="1" stop-color="rgb(94.673157%, 3.549194%, 98.223877%)" offset="0.464844"/><stop stop-opacity="1" stop-color="rgb(95.132446%, 3.244019%, 98.376465%)" offset="0.46875"/><stop stop-opacity="1" stop-color="rgb(95.591736%, 2.937317%, 98.529053%)" offset="0.472656"/><stop stop-opacity="1" stop-color="rgb(96.051025%, 2.630615%, 98.683167%)" offset="0.476563"/><stop stop-opacity="1" stop-color="rgb(96.510315%, 2.323914%, 98.835754%)" offset="0.480469"/><stop stop-opacity="1" stop-color="rgb(96.969604%, 2.018738%, 98.989868%)" offset="0.484375"/><stop stop-opacity="1" stop-color="rgb(97.428894%, 1.712036%, 99.142456%)" offset="0.488281"/><stop stop-opacity="1" stop-color="rgb(97.889709%, 1.405334%, 99.29657%)" offset="0.492188"/><stop stop-opacity="1" stop-color="rgb(98.348999%, 1.098633%, 99.449158%)" offset="0.496094"/><stop stop-opacity="1" stop-color="rgb(98.808289%, 0.793457%, 99.601746%)" offset="0.5"/><stop stop-opacity="1" stop-color="rgb(99.267578%, 0.486755%, 99.754333%)" offset="0.503906"/><stop stop-opacity="1" stop-color="rgb(99.726868%, 0.180054%, 99.908447%)" offset="0.507812"/><stop stop-opacity="1" stop-color="rgb(99.862671%, 0.314331%, 99.3927%)" offset="0.511719"/><stop stop-opacity="1" stop-color="rgb(100%, 0.448608%, 98.876953%)" offset="0.515625"/><stop stop-opacity="1" stop-color="rgb(100%, 0.765991%, 98.080444%)" offset="0.519531"/><stop stop-opacity="1" stop-color="rgb(100%, 1.0849%, 97.283936%)" offset="0.523438"/><stop stop-opacity="1" stop-color="rgb(100%, 1.403809%, 96.485901%)" offset="0.527344"/><stop stop-opacity="1" stop-color="rgb(100%, 1.722717%, 95.689392%)" offset="0.53125"/><stop stop-opacity="1" stop-color="rgb(100%, 2.041626%, 94.891357%)" offset="0.535156"/><stop stop-opacity="1" stop-color="rgb(100%, 2.360535%, 94.094849%)" offset="0.539063"/><stop stop-opacity="1" stop-color="rgb(100%, 2.679443%, 93.29834%)" offset="0.542969"/><stop stop-opacity="1" stop-color="rgb(100%, 2.998352%, 92.501831%)" offset="0.546875"/><stop stop-opacity="1" stop-color="rgb(100%, 3.317261%, 91.703796%)" offset="0.550781"/><stop stop-opacity="1" stop-color="rgb(100%, 3.636169%, 90.907288%)" offset="0.554688"/><stop stop-opacity="1" stop-color="rgb(100%, 3.955078%, 90.110779%)" offset="0.558594"/><stop stop-opacity="1" stop-color="rgb(100%, 4.273987%, 89.31427%)" offset="0.5625"/><stop stop-opacity="1" stop-color="rgb(100%, 4.592896%, 88.516235%)" offset="0.566406"/><stop stop-opacity="1" stop-color="rgb(100%, 4.911804%, 87.719727%)" offset="0.570312"/><stop stop-opacity="1" stop-color="rgb(100%, 5.229187%, 86.921692%)" offset="0.574219"/><stop stop-opacity="1" stop-color="rgb(100%, 5.548096%, 86.125183%)" offset="0.578125"/><stop stop-opacity="1" stop-color="rgb(100%, 5.867004%, 85.328674%)" offset="0.582031"/><stop stop-opacity="1" stop-color="rgb(100%, 6.185913%, 84.532166%)" offset="0.585937"/><stop stop-opacity="1" stop-color="rgb(100%, 6.504822%, 83.734131%)" offset="0.589844"/><stop stop-opacity="1" stop-color="rgb(100%, 6.82373%, 82.937622%)" offset="0.59375"/><stop stop-opacity="1" stop-color="rgb(100%, 7.142639%, 82.139587%)" offset="0.597656"/><stop stop-opacity="1" stop-color="rgb(100%, 7.461548%, 81.343079%)" offset="0.601563"/><stop stop-opacity="1" stop-color="rgb(100%, 7.780457%, 80.54657%)" offset="0.605469"/><stop stop-opacity="1" stop-color="rgb(100%, 8.099365%, 79.750061%)" offset="0.609375"/><stop stop-opacity="1" stop-color="rgb(100%, 8.418274%, 78.952026%)" offset="0.613281"/><stop stop-opacity="1" stop-color="rgb(100%, 8.737183%, 78.155518%)" offset="0.617188"/><stop stop-opacity="1" stop-color="rgb(100%, 9.054565%, 77.359009%)" offset="0.621094"/><stop stop-opacity="1" stop-color="rgb(100%, 9.373474%, 76.5625%)" offset="0.625"/><stop stop-opacity="1" stop-color="rgb(100%, 9.692383%, 75.764465%)" offset="0.628906"/><stop stop-opacity="1" stop-color="rgb(100%, 10.011292%, 74.967957%)" offset="0.632812"/><stop stop-opacity="1" stop-color="rgb(100%, 10.3302%, 74.169922%)" offset="0.636719"/><stop stop-opacity="1" stop-color="rgb(100%, 10.649109%, 73.373413%)" offset="0.640625"/><stop stop-opacity="1" stop-color="rgb(100%, 10.968018%, 72.576904%)" offset="0.644531"/><stop stop-opacity="1" stop-color="rgb(100%, 11.286926%, 71.780396%)" offset="0.648437"/><stop stop-opacity="1" stop-color="rgb(100%, 11.605835%, 70.982361%)" offset="0.652344"/><stop stop-opacity="1" stop-color="rgb(100%, 11.924744%, 70.185852%)" offset="0.65625"/><stop stop-opacity="1" stop-color="rgb(100%, 12.243652%, 69.387817%)" offset="0.660156"/><stop stop-opacity="1" stop-color="rgb(100%, 12.562561%, 68.591309%)" offset="0.664062"/><stop stop-opacity="1" stop-color="rgb(100%, 12.88147%, 67.7948%)" offset="0.667969"/><stop stop-opacity="1" stop-color="rgb(100%, 13.200378%, 66.998291%)" offset="0.671875"/><stop stop-opacity="1" stop-color="rgb(100%, 13.517761%, 66.200256%)" offset="0.675781"/><stop stop-opacity="1" stop-color="rgb(100%, 13.83667%, 65.403748%)" offset="0.679687"/><stop stop-opacity="1" stop-color="rgb(100%, 14.155579%, 64.605713%)" offset="0.683594"/><stop stop-opacity="1" stop-color="rgb(100%, 14.474487%, 63.809204%)" offset="0.6875"/><stop stop-opacity="1" stop-color="rgb(100%, 14.793396%, 63.012695%)" offset="0.691406"/><stop stop-opacity="1" stop-color="rgb(100%, 15.112305%, 62.216187%)" offset="0.695312"/><stop stop-opacity="1" stop-color="rgb(100%, 15.431213%, 61.418152%)" offset="0.699219"/><stop stop-opacity="1" stop-color="rgb(100%, 15.750122%, 60.621643%)" offset="0.703125"/><stop stop-opacity="1" stop-color="rgb(100%, 16.069031%, 59.825134%)" offset="0.707031"/><stop stop-opacity="1" stop-color="rgb(100%, 16.387939%, 59.028625%)" offset="0.710938"/><stop stop-opacity="1" stop-color="rgb(100%, 16.706848%, 58.230591%)" offset="0.714844"/><stop stop-opacity="1" stop-color="rgb(100%, 17.025757%, 57.434082%)" offset="0.71875"/><stop stop-opacity="1" stop-color="rgb(100%, 17.344666%, 56.636047%)" offset="0.722656"/><stop stop-opacity="1" stop-color="rgb(100%, 17.663574%, 55.839539%)" offset="0.726562"/><stop stop-opacity="1" stop-color="rgb(100%, 17.980957%, 55.04303%)" offset="0.730469"/><stop stop-opacity="1" stop-color="rgb(100%, 18.299866%, 54.246521%)" offset="0.734375"/><stop stop-opacity="1" stop-color="rgb(100%, 18.618774%, 53.448486%)" offset="0.738281"/><stop stop-opacity="1" stop-color="rgb(100%, 18.937683%, 52.651978%)" offset="0.742187"/><stop stop-opacity="1" stop-color="rgb(100%, 19.256592%, 51.853943%)" offset="0.746094"/><stop stop-opacity="1" stop-color="rgb(100%, 19.5755%, 51.057434%)" offset="0.75"/><stop stop-opacity="1" stop-color="rgb(100%, 19.894409%, 50.260925%)" offset="0.753906"/><stop stop-opacity="1" stop-color="rgb(100%, 20.213318%, 49.464417%)" offset="0.757812"/><stop stop-opacity="1" stop-color="rgb(100%, 20.532227%, 48.666382%)" offset="0.761719"/><stop stop-opacity="1" stop-color="rgb(100%, 20.851135%, 47.869873%)" offset="0.765625"/><stop stop-opacity="1" stop-color="rgb(100%, 21.170044%, 47.071838%)" offset="0.769531"/><stop stop-opacity="1" stop-color="rgb(100%, 21.488953%, 46.27533%)" offset="0.773438"/><stop stop-opacity="1" stop-color="rgb(100%, 21.807861%, 45.478821%)" offset="0.777344"/><stop stop-opacity="1" stop-color="rgb(100%, 22.12677%, 44.682312%)" offset="0.78125"/><stop stop-opacity="1" stop-color="rgb(100%, 22.444153%, 43.884277%)" offset="0.785156"/><stop stop-opacity="1" stop-color="rgb(100%, 22.763062%, 43.087769%)" offset="0.789062"/><stop stop-opacity="1" stop-color="rgb(100%, 23.08197%, 42.29126%)" offset="0.792969"/><stop stop-opacity="1" stop-color="rgb(100%, 23.400879%, 41.494751%)" offset="0.796875"/><stop stop-opacity="1" stop-color="rgb(100%, 23.719788%, 40.696716%)" offset="0.800781"/><stop stop-opacity="1" stop-color="rgb(100%, 24.038696%, 39.900208%)" offset="0.804688"/><stop stop-opacity="1" stop-color="rgb(100%, 24.357605%, 39.102173%)" offset="0.808594"/><stop stop-opacity="1" stop-color="rgb(100%, 24.676514%, 38.305664%)" offset="0.8125"/><stop stop-opacity="1" stop-color="rgb(100%, 24.995422%, 37.509155%)" offset="0.816406"/><stop stop-opacity="1" stop-color="rgb(100%, 25.314331%, 36.712646%)" offset="0.820312"/><stop stop-opacity="1" stop-color="rgb(100%, 25.63324%, 35.914612%)" offset="0.824219"/><stop stop-opacity="1" stop-color="rgb(100%, 25.952148%, 35.118103%)" offset="0.828125"/><stop stop-opacity="1" stop-color="rgb(100%, 26.271057%, 34.320068%)" offset="0.832031"/><stop stop-opacity="1" stop-color="rgb(100%, 26.589966%, 33.52356%)" offset="0.835937"/><stop stop-opacity="1" stop-color="rgb(100%, 26.907349%, 32.727051%)" offset="0.839844"/><stop stop-opacity="1" stop-color="rgb(100%, 27.226257%, 31.930542%)" offset="0.84375"/><stop stop-opacity="1" stop-color="rgb(100%, 27.545166%, 31.132507%)" offset="0.847656"/><stop stop-opacity="1" stop-color="rgb(100%, 27.864075%, 30.335999%)" offset="0.851563"/><stop stop-opacity="1" stop-color="rgb(100%, 28.182983%, 29.53949%)" offset="0.855469"/><stop stop-opacity="1" stop-color="rgb(100%, 28.501892%, 28.742981%)" offset="0.859375"/><stop stop-opacity="1" stop-color="rgb(100%, 28.820801%, 27.944946%)" offset="0.863281"/><stop stop-opacity="1" stop-color="rgb(100%, 29.139709%, 27.148438%)" offset="0.867188"/><stop stop-opacity="1" stop-color="rgb(100%, 29.458618%, 26.350403%)" offset="0.871094"/><stop stop-opacity="1" stop-color="rgb(100%, 29.777527%, 25.553894%)" offset="0.875"/><stop stop-opacity="1" stop-color="rgb(100%, 30.096436%, 24.757385%)" offset="0.878906"/><stop stop-opacity="1" stop-color="rgb(100%, 30.415344%, 23.960876%)" offset="0.882812"/><stop stop-opacity="1" stop-color="rgb(100%, 30.734253%, 23.162842%)" offset="0.886719"/><stop stop-opacity="1" stop-color="rgb(100%, 31.053162%, 22.366333%)" offset="0.890625"/><stop stop-opacity="1" stop-color="rgb(100%, 31.370544%, 21.568298%)" offset="0.894531"/><stop stop-opacity="1" stop-color="rgb(100%, 31.689453%, 20.77179%)" offset="0.898437"/><stop stop-opacity="1" stop-color="rgb(100%, 32.008362%, 19.975281%)" offset="0.902344"/><stop stop-opacity="1" stop-color="rgb(100%, 32.327271%, 19.178772%)" offset="0.90625"/><stop stop-opacity="1" stop-color="rgb(100%, 32.646179%, 18.380737%)" offset="0.910156"/><stop stop-opacity="1" stop-color="rgb(100%, 32.965088%, 17.584229%)" offset="0.914062"/><stop stop-opacity="1" stop-color="rgb(100%, 33.283997%, 16.786194%)" offset="0.917969"/><stop stop-opacity="1" stop-color="rgb(100%, 33.602905%, 15.989685%)" offset="0.921875"/><stop stop-opacity="1" stop-color="rgb(100%, 33.921814%, 15.193176%)" offset="0.925781"/><stop stop-opacity="1" stop-color="rgb(100%, 34.240723%, 14.396667%)" offset="0.929688"/><stop stop-opacity="1" stop-color="rgb(100%, 34.559631%, 13.598633%)" offset="0.933594"/><stop stop-opacity="1" stop-color="rgb(100%, 34.87854%, 12.802124%)" offset="0.9375"/><stop stop-opacity="1" stop-color="rgb(100%, 35.195923%, 12.005615%)" offset="0.941406"/><stop stop-opacity="1" stop-color="rgb(100%, 35.514832%, 11.209106%)" offset="0.945312"/><stop stop-opacity="1" stop-color="rgb(100%, 35.83374%, 10.411072%)" offset="0.949219"/><stop stop-opacity="1" stop-color="rgb(100%, 36.152649%, 9.614563%)" offset="0.953125"/><stop stop-opacity="1" stop-color="rgb(100%, 36.471558%, 8.816528%)" offset="0.957031"/><stop stop-opacity="1" stop-color="rgb(100%, 36.790466%, 8.02002%)" offset="0.960938"/><stop stop-opacity="1" stop-color="rgb(100%, 37.109375%, 7.223511%)" offset="0.964844"/><stop stop-opacity="1" stop-color="rgb(100%, 37.428284%, 6.427002%)" offset="0.96875"/><stop stop-opacity="1" stop-color="rgb(100%, 37.747192%, 5.628967%)" offset="0.972656"/><stop stop-opacity="1" stop-color="rgb(100%, 38.066101%, 4.832458%)" offset="0.976562"/><stop stop-opacity="1" stop-color="rgb(100%, 38.38501%, 4.034424%)" offset="0.980469"/><stop stop-opacity="1" stop-color="rgb(100%, 38.703918%, 3.237915%)" offset="0.984375"/><stop stop-opacity="1" stop-color="rgb(100%, 39.022827%, 2.441406%)" offset="0.988281"/><stop stop-opacity="1" stop-color="rgb(100%, 39.341736%, 1.644897%)" offset="0.992187"/><stop stop-opacity="1" stop-color="rgb(100%, 39.659119%, 0.846863%)" offset="0.996094"/><stop stop-opacity="1" stop-color="rgb(100%, 39.978027%, 0.050354%)" offset="1"/></linearGradient></defs><g clip-path="url(#71da88dc6c)"><g clip-path="url(#a5c9f3df51)"><path fill="url(#d57c130120)" d="M 50.246094 50.246094 L 50.246094 324.746094 L 324.746094 324.746094 L 324.746094 50.246094 Z M 50.246094 50.246094 " fill-rule="nonzero"/></g></g><path fill="#fefefe" d="M 243.816406 248.761719 L 185.953125 248.761719 C 180.703125 248.761719 176.378906 244.4375 176.378906 239.183594 C 176.378906 233.933594 180.703125 229.609375 185.953125 229.609375 L 243.816406 229.609375 C 249.070312 229.609375 253.394531 233.933594 253.394531 239.183594 C 253.394531 244.4375 249.070312 248.761719 243.816406 248.761719 Z M 255.144531 275.324219 L 119.953125 275.324219 C 108.832031 275.324219 99.667969 266.160156 99.667969 255.039062 L 99.667969 120.054688 C 99.667969 108.832031 108.832031 99.773438 119.953125 99.773438 L 255.144531 99.773438 C 266.265625 99.773438 275.425781 108.832031 275.425781 120.054688 L 275.425781 255.144531 C 275.222656 266.367188 266.265625 275.324219 255.144531 275.324219 Z M 119.953125 106.054688 C 112.230469 106.054688 105.949219 112.332031 105.949219 120.054688 L 105.949219 255.144531 C 105.949219 262.867188 112.230469 269.148438 119.953125 269.148438 L 255.144531 269.148438 C 262.867188 269.148438 269.148438 262.867188 269.148438 255.144531 L 269.148438 120.054688 C 269.148438 112.332031 262.867188 106.054688 255.144531 106.054688 Z M 185.953125 235.785156 C 181.421875 235.785156 181.421875 242.582031 185.953125 242.582031 L 243.816406 242.582031 C 248.347656 242.582031 248.347656 235.785156 243.816406 235.785156 Z M 131.277344 248.761719 C 122.628906 248.761719 118.410156 238.257812 124.378906 232.285156 L 169.273438 187.601562 L 124.378906 142.914062 C 118.203125 136.734375 122.734375 126.335938 131.277344 126.335938 C 133.851562 126.335938 136.222656 127.261719 138.074219 129.21875 L 189.660156 180.703125 C 193.46875 184.511719 193.46875 190.6875 189.660156 194.5 L 138.074219 246.082031 C 136.222656 247.730469 133.851562 248.761719 131.277344 248.761719 Z M 131.277344 132.617188 C 128.191406 132.617188 126.644531 136.324219 128.808594 138.488281 L 175.863281 185.4375 C 176.996094 186.570312 176.996094 188.628906 175.863281 189.863281 L 128.808594 236.917969 C 125.617188 240.109375 130.457031 244.949219 133.648438 241.757812 L 185.230469 190.175781 C 186.570312 188.835938 186.570312 186.671875 185.230469 185.335938 L 133.648438 133.648438 C 132.925781 133.03125 132.101562 132.617188 131.277344 132.617188 Z M 131.277344 132.617188 " fill-opacity="1" fill-rule="evenodd"/></svg>