<svg xmlns="http://www.w3.org/2000/svg" xmlns:xlink="http://www.w3.org/1999/xlink" width="200" zoomAndPan="magnify" viewBox="0 0 150 56.249996" height="75" preserveAspectRatio="xMidYMid meet" version="1.0"><defs><g/><clipPath id="d659fb3b22"><path d="M 41.449219 16.652344 L 63.652344 16.652344 L 63.652344 38.855469 L 41.449219 38.855469 Z M 41.449219 16.652344 " clip-rule="nonzero"/></clipPath><clipPath id="8dbccfcd68"><path d="M 63.652344 27.753906 C 63.652344 28.484375 63.582031 29.207031 63.4375 29.921875 C 63.296875 30.636719 63.085938 31.328125 62.808594 32.003906 C 62.527344 32.675781 62.1875 33.316406 61.78125 33.921875 C 61.375 34.527344 60.917969 35.089844 60.402344 35.605469 C 59.886719 36.121094 59.324219 36.582031 58.71875 36.984375 C 58.113281 37.390625 57.472656 37.734375 56.800781 38.011719 C 56.125 38.289062 55.429688 38.5 54.714844 38.644531 C 54 38.785156 53.277344 38.855469 52.550781 38.855469 C 51.820312 38.855469 51.097656 38.785156 50.382812 38.644531 C 49.667969 38.5 48.976562 38.289062 48.300781 38.011719 C 47.628906 37.734375 46.988281 37.390625 46.382812 36.984375 C 45.777344 36.582031 45.214844 36.121094 44.699219 35.605469 C 44.183594 35.089844 43.722656 34.527344 43.320312 33.921875 C 42.914062 33.316406 42.574219 32.675781 42.292969 32.003906 C 42.015625 31.328125 41.804688 30.636719 41.660156 29.921875 C 41.519531 29.207031 41.449219 28.484375 41.449219 27.753906 C 41.449219 27.027344 41.519531 26.304688 41.660156 25.589844 C 41.804688 24.875 42.015625 24.179688 42.292969 23.507812 C 42.574219 22.832031 42.914062 22.191406 43.320312 21.585938 C 43.722656 20.980469 44.183594 20.421875 44.699219 19.90625 C 45.214844 19.390625 45.777344 18.929688 46.382812 18.523438 C 46.988281 18.117188 47.628906 17.777344 48.300781 17.496094 C 48.976562 17.21875 49.667969 17.007812 50.382812 16.867188 C 51.097656 16.722656 51.820312 16.652344 52.550781 16.652344 C 53.277344 16.652344 54 16.722656 54.714844 16.867188 C 55.429688 17.007812 56.125 17.21875 56.800781 17.496094 C 57.472656 17.777344 58.113281 18.117188 58.71875 18.523438 C 59.324219 18.929688 59.886719 19.390625 60.402344 19.90625 C 60.917969 20.421875 61.375 20.980469 61.78125 21.585938 C 62.1875 22.191406 62.527344 22.832031 62.808594 23.507812 C 63.085938 24.179688 63.296875 24.875 63.4375 25.589844 C 63.582031 26.304688 63.652344 27.027344 63.652344 27.753906 Z M 63.652344 27.753906 " clip-rule="nonzero"/></clipPath><linearGradient x1="1333.32996" gradientTransform="matrix(0.00832856, 0, 0, 0.00832856, 41.448356, 16.652957)" y1="-0.0000833125" x2="1333.32996" gradientUnits="userSpaceOnUse" y2="2665.999838" id="414738ae6d"><stop stop-opacity="1" stop-color="rgb(39.99939%, 39.99939%, 79.998779%)" offset="0"/><stop stop-opacity="1" stop-color="rgb(40.458679%, 39.692688%, 80.151367%)" offset="0.00390625"/><stop stop-opacity="1" stop-color="rgb(40.917969%, 39.385986%, 80.305481%)" offset="0.0078125"/><stop stop-opacity="1" stop-color="rgb(41.377258%, 39.079285%, 80.458069%)" offset="0.0117188"/><stop stop-opacity="1" stop-color="rgb(41.836548%, 38.774109%, 80.612183%)" offset="0.015625"/><stop stop-opacity="1" stop-color="rgb(42.295837%, 38.467407%, 80.764771%)" offset="0.0195312"/><stop stop-opacity="1" stop-color="rgb(42.756653%, 38.160706%, 80.918884%)" offset="0.0234375"/><stop stop-opacity="1" stop-color="rgb(43.215942%, 37.854004%, 81.071472%)" offset="0.0273438"/><stop stop-opacity="1" stop-color="rgb(43.675232%, 37.548828%, 81.22406%)" offset="0.03125"/><stop stop-opacity="1" stop-color="rgb(44.134521%, 37.242126%, 81.376648%)" offset="0.0351562"/><stop stop-opacity="1" stop-color="rgb(44.593811%, 36.935425%, 81.530762%)" offset="0.0390625"/><stop stop-opacity="1" stop-color="rgb(45.053101%, 36.628723%, 81.68335%)" offset="0.0429688"/><stop stop-opacity="1" stop-color="rgb(45.51239%, 36.323547%, 81.837463%)" offset="0.046875"/><stop stop-opacity="1" stop-color="rgb(45.97168%, 36.016846%, 81.990051%)" offset="0.0507813"/><stop stop-opacity="1" stop-color="rgb(46.430969%, 35.71167%, 82.142639%)" offset="0.0546875"/><stop stop-opacity="1" stop-color="rgb(46.890259%, 35.404968%, 82.295227%)" offset="0.0585938"/><stop stop-opacity="1" stop-color="rgb(47.351074%, 35.098267%, 82.449341%)" offset="0.0625"/><stop stop-opacity="1" stop-color="rgb(47.810364%, 34.791565%, 82.601929%)" offset="0.0664062"/><stop stop-opacity="1" stop-color="rgb(48.269653%, 34.486389%, 82.756042%)" offset="0.0703125"/><stop stop-opacity="1" stop-color="rgb(48.728943%, 34.179688%, 82.90863%)" offset="0.0742188"/><stop stop-opacity="1" stop-color="rgb(49.188232%, 33.872986%, 83.062744%)" offset="0.078125"/><stop stop-opacity="1" stop-color="rgb(49.647522%, 33.566284%, 83.215332%)" offset="0.0820313"/><stop stop-opacity="1" stop-color="rgb(50.106812%, 33.261108%, 83.36792%)" offset="0.0859375"/><stop stop-opacity="1" stop-color="rgb(50.566101%, 32.954407%, 83.520508%)" offset="0.0898438"/><stop stop-opacity="1" stop-color="rgb(51.025391%, 32.647705%, 83.674622%)" offset="0.09375"/><stop stop-opacity="1" stop-color="rgb(51.48468%, 32.341003%, 83.827209%)" offset="0.0976562"/><stop stop-opacity="1" stop-color="rgb(51.945496%, 32.035828%, 83.981323%)" offset="0.101562"/><stop stop-opacity="1" stop-color="rgb(52.404785%, 31.729126%, 84.133911%)" offset="0.105469"/><stop stop-opacity="1" stop-color="rgb(52.864075%, 31.422424%, 84.288025%)" offset="0.109375"/><stop stop-opacity="1" stop-color="rgb(53.323364%, 31.115723%, 84.440613%)" offset="0.113281"/><stop stop-opacity="1" stop-color="rgb(53.782654%, 30.810547%, 84.593201%)" offset="0.117188"/><stop stop-opacity="1" stop-color="rgb(54.241943%, 30.503845%, 84.745789%)" offset="0.121094"/><stop stop-opacity="1" stop-color="rgb(54.701233%, 30.197144%, 84.899902%)" offset="0.125"/><stop stop-opacity="1" stop-color="rgb(55.160522%, 29.890442%, 85.05249%)" offset="0.128906"/><stop stop-opacity="1" stop-color="rgb(55.619812%, 29.585266%, 85.206604%)" offset="0.132812"/><stop stop-opacity="1" stop-color="rgb(56.079102%, 29.278564%, 85.359192%)" offset="0.136719"/><stop stop-opacity="1" stop-color="rgb(56.539917%, 28.971863%, 85.513306%)" offset="0.140625"/><stop stop-opacity="1" stop-color="rgb(56.999207%, 28.665161%, 85.665894%)" offset="0.144531"/><stop stop-opacity="1" stop-color="rgb(57.458496%, 28.359985%, 85.818481%)" offset="0.148438"/><stop stop-opacity="1" stop-color="rgb(57.917786%, 28.053284%, 85.971069%)" offset="0.152344"/><stop stop-opacity="1" stop-color="rgb(58.377075%, 27.746582%, 86.125183%)" offset="0.15625"/><stop stop-opacity="1" stop-color="rgb(58.836365%, 27.43988%, 86.277771%)" offset="0.160156"/><stop stop-opacity="1" stop-color="rgb(59.295654%, 27.134705%, 86.431885%)" offset="0.164063"/><stop stop-opacity="1" stop-color="rgb(59.754944%, 26.828003%, 86.584473%)" offset="0.167969"/><stop stop-opacity="1" stop-color="rgb(60.214233%, 26.522827%, 86.737061%)" offset="0.171875"/><stop stop-opacity="1" stop-color="rgb(60.673523%, 26.216125%, 86.889648%)" offset="0.175781"/><stop stop-opacity="1" stop-color="rgb(61.134338%, 25.909424%, 87.043762%)" offset="0.179688"/><stop stop-opacity="1" stop-color="rgb(61.593628%, 25.602722%, 87.19635%)" offset="0.183594"/><stop stop-opacity="1" stop-color="rgb(62.052917%, 25.297546%, 87.350464%)" offset="0.1875"/><stop stop-opacity="1" stop-color="rgb(62.512207%, 24.990845%, 87.503052%)" offset="0.191406"/><stop stop-opacity="1" stop-color="rgb(62.971497%, 24.684143%, 87.657166%)" offset="0.195312"/><stop stop-opacity="1" stop-color="rgb(63.430786%, 24.377441%, 87.809753%)" offset="0.199219"/><stop stop-opacity="1" stop-color="rgb(63.890076%, 24.072266%, 87.962341%)" offset="0.203125"/><stop stop-opacity="1" stop-color="rgb(64.349365%, 23.765564%, 88.114929%)" offset="0.207031"/><stop stop-opacity="1" stop-color="rgb(64.808655%, 23.458862%, 88.269043%)" offset="0.210938"/><stop stop-opacity="1" stop-color="rgb(65.267944%, 23.152161%, 88.421631%)" offset="0.214844"/><stop stop-opacity="1" stop-color="rgb(65.72876%, 22.846985%, 88.575745%)" offset="0.21875"/><stop stop-opacity="1" stop-color="rgb(66.188049%, 22.540283%, 88.728333%)" offset="0.222656"/><stop stop-opacity="1" stop-color="rgb(66.647339%, 22.233582%, 88.882446%)" offset="0.226563"/><stop stop-opacity="1" stop-color="rgb(67.106628%, 21.92688%, 89.035034%)" offset="0.230469"/><stop stop-opacity="1" stop-color="rgb(67.565918%, 21.621704%, 89.187622%)" offset="0.234375"/><stop stop-opacity="1" stop-color="rgb(68.025208%, 21.315002%, 89.34021%)" offset="0.238281"/><stop stop-opacity="1" stop-color="rgb(68.484497%, 21.008301%, 89.494324%)" offset="0.242188"/><stop stop-opacity="1" stop-color="rgb(68.943787%, 20.701599%, 89.646912%)" offset="0.246094"/><stop stop-opacity="1" stop-color="rgb(69.403076%, 20.396423%, 89.801025%)" offset="0.25"/><stop stop-opacity="1" stop-color="rgb(69.862366%, 20.089722%, 89.953613%)" offset="0.253906"/><stop stop-opacity="1" stop-color="rgb(70.323181%, 19.78302%, 90.107727%)" offset="0.257812"/><stop stop-opacity="1" stop-color="rgb(70.782471%, 19.476318%, 90.260315%)" offset="0.261719"/><stop stop-opacity="1" stop-color="rgb(71.24176%, 19.171143%, 90.412903%)" offset="0.265625"/><stop stop-opacity="1" stop-color="rgb(71.70105%, 18.864441%, 90.565491%)" offset="0.269531"/><stop stop-opacity="1" stop-color="rgb(72.160339%, 18.557739%, 90.719604%)" offset="0.273438"/><stop stop-opacity="1" stop-color="rgb(72.619629%, 18.251038%, 90.872192%)" offset="0.277344"/><stop stop-opacity="1" stop-color="rgb(73.078918%, 17.945862%, 91.026306%)" offset="0.28125"/><stop stop-opacity="1" stop-color="rgb(73.538208%, 17.63916%, 91.178894%)" offset="0.285156"/><stop stop-opacity="1" stop-color="rgb(73.997498%, 17.333984%, 91.331482%)" offset="0.289063"/><stop stop-opacity="1" stop-color="rgb(74.456787%, 17.027283%, 91.48407%)" offset="0.292969"/><stop stop-opacity="1" stop-color="rgb(74.917603%, 16.720581%, 91.638184%)" offset="0.296875"/><stop stop-opacity="1" stop-color="rgb(75.376892%, 16.413879%, 91.790771%)" offset="0.300781"/><stop stop-opacity="1" stop-color="rgb(75.836182%, 16.108704%, 91.944885%)" offset="0.304688"/><stop stop-opacity="1" stop-color="rgb(76.295471%, 15.802002%, 92.097473%)" offset="0.308594"/><stop stop-opacity="1" stop-color="rgb(76.754761%, 15.4953%, 92.251587%)" offset="0.3125"/><stop stop-opacity="1" stop-color="rgb(77.21405%, 15.188599%, 92.404175%)" offset="0.316406"/><stop stop-opacity="1" stop-color="rgb(77.67334%, 14.883423%, 92.556763%)" offset="0.320312"/><stop stop-opacity="1" stop-color="rgb(78.132629%, 14.576721%, 92.709351%)" offset="0.324219"/><stop stop-opacity="1" stop-color="rgb(78.591919%, 14.27002%, 92.863464%)" offset="0.328125"/><stop stop-opacity="1" stop-color="rgb(79.051208%, 13.963318%, 93.016052%)" offset="0.332031"/><stop stop-opacity="1" stop-color="rgb(79.512024%, 13.658142%, 93.170166%)" offset="0.335938"/><stop stop-opacity="1" stop-color="rgb(79.971313%, 13.35144%, 93.322754%)" offset="0.339844"/><stop stop-opacity="1" stop-color="rgb(80.430603%, 13.044739%, 93.476868%)" offset="0.34375"/><stop stop-opacity="1" stop-color="rgb(80.889893%, 12.738037%, 93.629456%)" offset="0.347656"/><stop stop-opacity="1" stop-color="rgb(81.349182%, 12.432861%, 93.782043%)" offset="0.351562"/><stop stop-opacity="1" stop-color="rgb(81.808472%, 12.12616%, 93.934631%)" offset="0.355469"/><stop stop-opacity="1" stop-color="rgb(82.267761%, 11.819458%, 94.088745%)" offset="0.359375"/><stop stop-opacity="1" stop-color="rgb(82.727051%, 11.512756%, 94.241333%)" offset="0.363281"/><stop stop-opacity="1" stop-color="rgb(83.18634%, 11.207581%, 94.395447%)" offset="0.367187"/><stop stop-opacity="1" stop-color="rgb(83.64563%, 10.900879%, 94.548035%)" offset="0.371094"/><stop stop-opacity="1" stop-color="rgb(84.106445%, 10.594177%, 94.702148%)" offset="0.375"/><stop stop-opacity="1" stop-color="rgb(84.565735%, 10.287476%, 94.854736%)" offset="0.378906"/><stop stop-opacity="1" stop-color="rgb(85.025024%, 9.9823%, 95.007324%)" offset="0.382813"/><stop stop-opacity="1" stop-color="rgb(85.484314%, 9.675598%, 95.159912%)" offset="0.386719"/><stop stop-opacity="1" stop-color="rgb(85.943604%, 9.368896%, 95.314026%)" offset="0.390625"/><stop stop-opacity="1" stop-color="rgb(86.402893%, 9.062195%, 95.466614%)" offset="0.394531"/><stop stop-opacity="1" stop-color="rgb(86.862183%, 8.757019%, 95.620728%)" offset="0.398438"/><stop stop-opacity="1" stop-color="rgb(87.321472%, 8.450317%, 95.773315%)" offset="0.402344"/><stop stop-opacity="1" stop-color="rgb(87.780762%, 8.145142%, 95.925903%)" offset="0.40625"/><stop stop-opacity="1" stop-color="rgb(88.240051%, 7.83844%, 96.078491%)" offset="0.410156"/><stop stop-opacity="1" stop-color="rgb(88.700867%, 7.531738%, 96.232605%)" offset="0.414063"/><stop stop-opacity="1" stop-color="rgb(89.160156%, 7.225037%, 96.385193%)" offset="0.417969"/><stop stop-opacity="1" stop-color="rgb(89.619446%, 6.919861%, 96.539307%)" offset="0.421875"/><stop stop-opacity="1" stop-color="rgb(90.078735%, 6.613159%, 96.691895%)" offset="0.425781"/><stop stop-opacity="1" stop-color="rgb(90.538025%, 6.306458%, 96.846008%)" offset="0.429688"/><stop stop-opacity="1" stop-color="rgb(90.997314%, 5.999756%, 96.998596%)" offset="0.433594"/><stop stop-opacity="1" stop-color="rgb(91.456604%, 5.69458%, 97.151184%)" offset="0.4375"/><stop stop-opacity="1" stop-color="rgb(91.915894%, 5.387878%, 97.303772%)" offset="0.441406"/><stop stop-opacity="1" stop-color="rgb(92.375183%, 5.081177%, 97.457886%)" offset="0.445312"/><stop stop-opacity="1" stop-color="rgb(92.834473%, 4.774475%, 97.610474%)" offset="0.449219"/><stop stop-opacity="1" stop-color="rgb(93.295288%, 4.469299%, 97.764587%)" offset="0.453125"/><stop stop-opacity="1" stop-color="rgb(93.754578%, 4.162598%, 97.917175%)" offset="0.457031"/><stop stop-opacity="1" stop-color="rgb(94.213867%, 3.855896%, 98.071289%)" offset="0.460938"/><stop stop-opacity="1" stop-color="rgb(94.673157%, 3.549194%, 98.223877%)" offset="0.464844"/><stop stop-opacity="1" stop-color="rgb(95.132446%, 3.244019%, 98.376465%)" offset="0.46875"/><stop stop-opacity="1" stop-color="rgb(95.591736%, 2.937317%, 98.529053%)" offset="0.472656"/><stop stop-opacity="1" stop-color="rgb(96.051025%, 2.630615%, 98.683167%)" offset="0.476562"/><stop stop-opacity="1" stop-color="rgb(96.510315%, 2.323914%, 98.835754%)" offset="0.480469"/><stop stop-opacity="1" stop-color="rgb(96.969604%, 2.018738%, 98.989868%)" offset="0.484375"/><stop stop-opacity="1" stop-color="rgb(97.428894%, 1.712036%, 99.142456%)" offset="0.488281"/><stop stop-opacity="1" stop-color="rgb(97.889709%, 1.405334%, 99.29657%)" offset="0.492187"/><stop stop-opacity="1" stop-color="rgb(98.348999%, 1.098633%, 99.449158%)" offset="0.496094"/><stop stop-opacity="1" stop-color="rgb(98.808289%, 0.793457%, 99.601746%)" offset="0.5"/><stop stop-opacity="1" stop-color="rgb(99.267578%, 0.486755%, 99.754333%)" offset="0.503906"/><stop stop-opacity="1" stop-color="rgb(99.726868%, 0.180054%, 99.908447%)" offset="0.507812"/><stop stop-opacity="1" stop-color="rgb(99.862671%, 0.314331%, 99.3927%)" offset="0.511719"/><stop stop-opacity="1" stop-color="rgb(100%, 0.448608%, 98.876953%)" offset="0.515625"/><stop stop-opacity="1" stop-color="rgb(100%, 0.765991%, 98.080444%)" offset="0.519531"/><stop stop-opacity="1" stop-color="rgb(100%, 1.0849%, 97.283936%)" offset="0.523438"/><stop stop-opacity="1" stop-color="rgb(100%, 1.403809%, 96.485901%)" offset="0.527344"/><stop stop-opacity="1" stop-color="rgb(100%, 1.722717%, 95.689392%)" offset="0.53125"/><stop stop-opacity="1" stop-color="rgb(100%, 2.041626%, 94.892883%)" offset="0.535156"/><stop stop-opacity="1" stop-color="rgb(100%, 2.360535%, 94.096375%)" offset="0.539062"/><stop stop-opacity="1" stop-color="rgb(100%, 2.679443%, 93.29834%)" offset="0.542969"/><stop stop-opacity="1" stop-color="rgb(100%, 2.998352%, 92.501831%)" offset="0.546875"/><stop stop-opacity="1" stop-color="rgb(100%, 3.317261%, 91.703796%)" offset="0.550781"/><stop stop-opacity="1" stop-color="rgb(100%, 3.636169%, 90.907288%)" offset="0.554688"/><stop stop-opacity="1" stop-color="rgb(100%, 3.955078%, 90.110779%)" offset="0.558594"/><stop stop-opacity="1" stop-color="rgb(100%, 4.273987%, 89.31427%)" offset="0.5625"/><stop stop-opacity="1" stop-color="rgb(100%, 4.592896%, 88.516235%)" offset="0.566406"/><stop stop-opacity="1" stop-color="rgb(100%, 4.911804%, 87.719727%)" offset="0.570312"/><stop stop-opacity="1" stop-color="rgb(100%, 5.229187%, 86.921692%)" offset="0.574219"/><stop stop-opacity="1" stop-color="rgb(100%, 5.548096%, 86.125183%)" offset="0.578125"/><stop stop-opacity="1" stop-color="rgb(100%, 5.867004%, 85.328674%)" offset="0.582031"/><stop stop-opacity="1" stop-color="rgb(100%, 6.185913%, 84.532166%)" offset="0.585938"/><stop stop-opacity="1" stop-color="rgb(100%, 6.504822%, 83.734131%)" offset="0.589844"/><stop stop-opacity="1" stop-color="rgb(100%, 6.82373%, 82.937622%)" offset="0.59375"/><stop stop-opacity="1" stop-color="rgb(100%, 7.142639%, 82.139587%)" offset="0.597656"/><stop stop-opacity="1" stop-color="rgb(100%, 7.461548%, 81.343079%)" offset="0.601562"/><stop stop-opacity="1" stop-color="rgb(100%, 7.780457%, 80.54657%)" offset="0.605469"/><stop stop-opacity="1" stop-color="rgb(100%, 8.099365%, 79.750061%)" offset="0.609375"/><stop stop-opacity="1" stop-color="rgb(100%, 8.418274%, 78.952026%)" offset="0.613281"/><stop stop-opacity="1" stop-color="rgb(100%, 8.737183%, 78.155518%)" offset="0.617188"/><stop stop-opacity="1" stop-color="rgb(100%, 9.054565%, 77.359009%)" offset="0.621094"/><stop stop-opacity="1" stop-color="rgb(100%, 9.373474%, 76.5625%)" offset="0.625"/><stop stop-opacity="1" stop-color="rgb(100%, 9.692383%, 75.764465%)" offset="0.628906"/><stop stop-opacity="1" stop-color="rgb(100%, 10.011292%, 74.967957%)" offset="0.632812"/><stop stop-opacity="1" stop-color="rgb(100%, 10.3302%, 74.169922%)" offset="0.636719"/><stop stop-opacity="1" stop-color="rgb(100%, 10.649109%, 73.373413%)" offset="0.640625"/><stop stop-opacity="1" stop-color="rgb(100%, 10.968018%, 72.576904%)" offset="0.644531"/><stop stop-opacity="1" stop-color="rgb(100%, 11.286926%, 71.780396%)" offset="0.648438"/><stop stop-opacity="1" stop-color="rgb(100%, 11.605835%, 70.982361%)" offset="0.652344"/><stop stop-opacity="1" stop-color="rgb(100%, 11.924744%, 70.185852%)" offset="0.65625"/><stop stop-opacity="1" stop-color="rgb(100%, 12.243652%, 69.387817%)" offset="0.660156"/><stop stop-opacity="1" stop-color="rgb(100%, 12.562561%, 68.591309%)" offset="0.664063"/><stop stop-opacity="1" stop-color="rgb(100%, 12.88147%, 67.7948%)" offset="0.667969"/><stop stop-opacity="1" stop-color="rgb(100%, 13.200378%, 66.998291%)" offset="0.671875"/><stop stop-opacity="1" stop-color="rgb(100%, 13.517761%, 66.200256%)" offset="0.675781"/><stop stop-opacity="1" stop-color="rgb(100%, 13.83667%, 65.403748%)" offset="0.679688"/><stop stop-opacity="1" stop-color="rgb(100%, 14.155579%, 64.605713%)" offset="0.683594"/><stop stop-opacity="1" stop-color="rgb(100%, 14.474487%, 63.809204%)" offset="0.6875"/><stop stop-opacity="1" stop-color="rgb(100%, 14.793396%, 63.012695%)" offset="0.691406"/><stop stop-opacity="1" stop-color="rgb(100%, 15.112305%, 62.216187%)" offset="0.695313"/><stop stop-opacity="1" stop-color="rgb(100%, 15.431213%, 61.418152%)" offset="0.699219"/><stop stop-opacity="1" stop-color="rgb(100%, 15.750122%, 60.621643%)" offset="0.703125"/><stop stop-opacity="1" stop-color="rgb(100%, 16.069031%, 59.825134%)" offset="0.707031"/><stop stop-opacity="1" stop-color="rgb(100%, 16.387939%, 59.028625%)" offset="0.710938"/><stop stop-opacity="1" stop-color="rgb(100%, 16.706848%, 58.230591%)" offset="0.714844"/><stop stop-opacity="1" stop-color="rgb(100%, 17.025757%, 57.434082%)" offset="0.71875"/><stop stop-opacity="1" stop-color="rgb(100%, 17.344666%, 56.636047%)" offset="0.722656"/><stop stop-opacity="1" stop-color="rgb(100%, 17.663574%, 55.839539%)" offset="0.726562"/><stop stop-opacity="1" stop-color="rgb(100%, 17.980957%, 55.04303%)" offset="0.730469"/><stop stop-opacity="1" stop-color="rgb(100%, 18.299866%, 54.246521%)" offset="0.734375"/><stop stop-opacity="1" stop-color="rgb(100%, 18.618774%, 53.448486%)" offset="0.738281"/><stop stop-opacity="1" stop-color="rgb(100%, 18.937683%, 52.651978%)" offset="0.742188"/><stop stop-opacity="1" stop-color="rgb(100%, 19.256592%, 51.853943%)" offset="0.746094"/><stop stop-opacity="1" stop-color="rgb(100%, 19.5755%, 51.057434%)" offset="0.75"/><stop stop-opacity="1" stop-color="rgb(100%, 19.894409%, 50.260925%)" offset="0.753906"/><stop stop-opacity="1" stop-color="rgb(100%, 20.213318%, 49.464417%)" offset="0.757812"/><stop stop-opacity="1" stop-color="rgb(100%, 20.532227%, 48.666382%)" offset="0.761719"/><stop stop-opacity="1" stop-color="rgb(100%, 20.851135%, 47.869873%)" offset="0.765625"/><stop stop-opacity="1" stop-color="rgb(100%, 21.170044%, 47.071838%)" offset="0.769531"/><stop stop-opacity="1" stop-color="rgb(100%, 21.488953%, 46.27533%)" offset="0.773438"/><stop stop-opacity="1" stop-color="rgb(100%, 21.807861%, 45.478821%)" offset="0.777344"/><stop stop-opacity="1" stop-color="rgb(100%, 22.12677%, 44.682312%)" offset="0.78125"/><stop stop-opacity="1" stop-color="rgb(100%, 22.444153%, 43.884277%)" offset="0.785156"/><stop stop-opacity="1" stop-color="rgb(100%, 22.763062%, 43.087769%)" offset="0.789062"/><stop stop-opacity="1" stop-color="rgb(100%, 23.08197%, 42.29126%)" offset="0.792969"/><stop stop-opacity="1" stop-color="rgb(100%, 23.400879%, 41.494751%)" offset="0.796875"/><stop stop-opacity="1" stop-color="rgb(100%, 23.719788%, 40.696716%)" offset="0.800781"/><stop stop-opacity="1" stop-color="rgb(100%, 24.038696%, 39.900208%)" offset="0.804688"/><stop stop-opacity="1" stop-color="rgb(100%, 24.357605%, 39.102173%)" offset="0.808594"/><stop stop-opacity="1" stop-color="rgb(100%, 24.676514%, 38.305664%)" offset="0.8125"/><stop stop-opacity="1" stop-color="rgb(100%, 24.995422%, 37.509155%)" offset="0.816406"/><stop stop-opacity="1" stop-color="rgb(100%, 25.314331%, 36.712646%)" offset="0.820312"/><stop stop-opacity="1" stop-color="rgb(100%, 25.63324%, 35.914612%)" offset="0.824219"/><stop stop-opacity="1" stop-color="rgb(100%, 25.952148%, 35.118103%)" offset="0.828125"/><stop stop-opacity="1" stop-color="rgb(100%, 26.271057%, 34.320068%)" offset="0.832031"/><stop stop-opacity="1" stop-color="rgb(100%, 26.589966%, 33.52356%)" offset="0.835937"/><stop stop-opacity="1" stop-color="rgb(100%, 26.907349%, 32.727051%)" offset="0.839844"/><stop stop-opacity="1" stop-color="rgb(100%, 27.226257%, 31.930542%)" offset="0.84375"/><stop stop-opacity="1" stop-color="rgb(100%, 27.545166%, 31.132507%)" offset="0.847656"/><stop stop-opacity="1" stop-color="rgb(100%, 27.864075%, 30.335999%)" offset="0.851562"/><stop stop-opacity="1" stop-color="rgb(100%, 28.182983%, 29.53949%)" offset="0.855469"/><stop stop-opacity="1" stop-color="rgb(100%, 28.501892%, 28.742981%)" offset="0.859375"/><stop stop-opacity="1" stop-color="rgb(100%, 28.820801%, 27.944946%)" offset="0.863281"/><stop stop-opacity="1" stop-color="rgb(100%, 29.139709%, 27.148438%)" offset="0.867188"/><stop stop-opacity="1" stop-color="rgb(100%, 29.458618%, 26.350403%)" offset="0.871094"/><stop stop-opacity="1" stop-color="rgb(100%, 29.777527%, 25.553894%)" offset="0.875"/><stop stop-opacity="1" stop-color="rgb(100%, 30.096436%, 24.757385%)" offset="0.878906"/><stop stop-opacity="1" stop-color="rgb(100%, 30.415344%, 23.960876%)" offset="0.882812"/><stop stop-opacity="1" stop-color="rgb(100%, 30.734253%, 23.162842%)" offset="0.886719"/><stop stop-opacity="1" stop-color="rgb(100%, 31.053162%, 22.366333%)" offset="0.890625"/><stop stop-opacity="1" stop-color="rgb(100%, 31.370544%, 21.568298%)" offset="0.894531"/><stop stop-opacity="1" stop-color="rgb(100%, 31.689453%, 20.77179%)" offset="0.898438"/><stop stop-opacity="1" stop-color="rgb(100%, 32.008362%, 19.975281%)" offset="0.902344"/><stop stop-opacity="1" stop-color="rgb(100%, 32.327271%, 19.178772%)" offset="0.90625"/><stop stop-opacity="1" stop-color="rgb(100%, 32.646179%, 18.380737%)" offset="0.910156"/><stop stop-opacity="1" stop-color="rgb(100%, 32.965088%, 17.584229%)" offset="0.914063"/><stop stop-opacity="1" stop-color="rgb(100%, 33.283997%, 16.786194%)" offset="0.917969"/><stop stop-opacity="1" stop-color="rgb(100%, 33.602905%, 15.989685%)" offset="0.921875"/><stop stop-opacity="1" stop-color="rgb(100%, 33.921814%, 15.193176%)" offset="0.925781"/><stop stop-opacity="1" stop-color="rgb(100%, 34.240723%, 14.396667%)" offset="0.929688"/><stop stop-opacity="1" stop-color="rgb(100%, 34.559631%, 13.598633%)" offset="0.933594"/><stop stop-opacity="1" stop-color="rgb(100%, 34.87854%, 12.802124%)" offset="0.9375"/><stop stop-opacity="1" stop-color="rgb(100%, 35.195923%, 12.005615%)" offset="0.941406"/><stop stop-opacity="1" stop-color="rgb(100%, 35.514832%, 11.209106%)" offset="0.945312"/><stop stop-opacity="1" stop-color="rgb(100%, 35.83374%, 10.411072%)" offset="0.949219"/><stop stop-opacity="1" stop-color="rgb(100%, 36.152649%, 9.614563%)" offset="0.953125"/><stop stop-opacity="1" stop-color="rgb(100%, 36.471558%, 8.816528%)" offset="0.957031"/><stop stop-opacity="1" stop-color="rgb(100%, 36.790466%, 8.02002%)" offset="0.960938"/><stop stop-opacity="1" stop-color="rgb(100%, 37.109375%, 7.223511%)" offset="0.964844"/><stop stop-opacity="1" stop-color="rgb(100%, 37.428284%, 6.427002%)" offset="0.96875"/><stop stop-opacity="1" stop-color="rgb(100%, 37.747192%, 5.628967%)" offset="0.972656"/><stop stop-opacity="1" stop-color="rgb(100%, 38.066101%, 4.832458%)" offset="0.976562"/><stop stop-opacity="1" stop-color="rgb(100%, 38.38501%, 4.034424%)" offset="0.980469"/><stop stop-opacity="1" stop-color="rgb(100%, 38.703918%, 3.237915%)" offset="0.984375"/><stop stop-opacity="1" stop-color="rgb(100%, 39.022827%, 2.441406%)" offset="0.988281"/><stop stop-opacity="1" stop-color="rgb(100%, 39.341736%, 1.644897%)" offset="0.992188"/><stop stop-opacity="1" stop-color="rgb(100%, 39.659119%, 0.846863%)" offset="0.996094"/><stop stop-opacity="1" stop-color="rgb(100%, 39.978027%, 0.050354%)" offset="1"/></linearGradient></defs><g clip-path="url(#d659fb3b22)"><g clip-path="url(#8dbccfcd68)"><path fill="url(#414738ae6d)" d="M 41.449219 16.652344 L 41.449219 38.855469 L 63.652344 38.855469 L 63.652344 16.652344 Z M 41.449219 16.652344 " fill-rule="nonzero"/></g></g><path fill="#fefefe" d="M 57.105469 32.710938 L 52.425781 32.710938 C 52 32.710938 51.652344 32.359375 51.652344 31.9375 C 51.652344 31.511719 52 31.160156 52.425781 31.160156 L 57.105469 31.160156 C 57.53125 31.160156 57.878906 31.511719 57.878906 31.9375 C 57.878906 32.359375 57.53125 32.710938 57.105469 32.710938 Z M 58.023438 34.859375 L 47.085938 34.859375 C 46.1875 34.859375 45.445312 34.117188 45.445312 33.21875 L 45.445312 22.300781 C 45.445312 21.390625 46.1875 20.660156 47.085938 20.660156 L 58.023438 20.660156 C 58.921875 20.660156 59.664062 21.390625 59.664062 22.300781 L 59.664062 33.226562 C 59.644531 34.132812 58.921875 34.859375 58.023438 34.859375 Z M 47.085938 21.167969 C 46.460938 21.167969 45.953125 21.675781 45.953125 22.300781 L 45.953125 33.226562 C 45.953125 33.851562 46.460938 34.359375 47.085938 34.359375 L 58.023438 34.359375 C 58.648438 34.359375 59.15625 33.851562 59.15625 33.226562 L 59.15625 22.300781 C 59.15625 21.675781 58.648438 21.167969 58.023438 21.167969 Z M 52.425781 31.660156 C 52.058594 31.660156 52.058594 32.210938 52.425781 32.210938 L 57.105469 32.210938 C 57.472656 32.210938 57.472656 31.660156 57.105469 31.660156 Z M 48.003906 32.710938 C 47.304688 32.710938 46.960938 31.859375 47.445312 31.378906 L 51.078125 27.761719 L 47.445312 24.148438 C 46.945312 23.648438 47.3125 22.808594 48.003906 22.808594 C 48.210938 22.808594 48.402344 22.882812 48.550781 23.039062 L 52.726562 27.207031 C 53.035156 27.511719 53.035156 28.011719 52.726562 28.320312 L 48.550781 32.492188 C 48.402344 32.628906 48.210938 32.710938 48.003906 32.710938 Z M 48.003906 23.316406 C 47.753906 23.316406 47.628906 23.617188 47.804688 23.789062 L 51.609375 27.589844 C 51.699219 27.679688 51.699219 27.847656 51.609375 27.945312 L 47.804688 31.753906 C 47.542969 32.011719 47.9375 32.402344 48.195312 32.144531 L 52.367188 27.972656 C 52.476562 27.863281 52.476562 27.6875 52.367188 27.578125 L 48.195312 23.398438 C 48.136719 23.347656 48.070312 23.316406 48.003906 23.316406 Z M 48.003906 23.316406 " fill-opacity="1" fill-rule="evenodd"/><g fill="#667dea" fill-opacity="1"><g transform="translate(66.628641, 31.461369)"><g><path d="M 10.25 0 L 8.296875 -6.84375 L 6.34375 0 L 3.25 0 L -0.21875 -12.203125 L 2.875 -12.203125 L 4.953125 -3.828125 L 5.03125 -3.828125 L 7.25 -12.203125 L 9.359375 -12.203125 L 11.578125 -3.828125 L 11.640625 -3.828125 L 13.734375 -12.203125 L 16.8125 -12.203125 L 13.328125 0 Z M 10.25 0 "/></g></g></g><g fill="#667dea" fill-opacity="1"><g transform="translate(83.222376, 31.461369)"><g><path d="M 0.34375 -6.109375 C 0.34375 -7.878906 0.941406 -9.375 2.140625 -10.59375 C 3.347656 -11.8125 4.800781 -12.421875 6.5 -12.421875 C 8.207031 -12.421875 9.65625 -11.8125 10.84375 -10.59375 C 12.039062 -9.382812 12.640625 -7.890625 12.640625 -6.109375 C 12.640625 -4.328125 12.050781 -2.828125 10.875 -1.609375 C 9.695312 -0.390625 8.238281 0.21875 6.5 0.21875 C 4.707031 0.21875 3.234375 -0.382812 2.078125 -1.59375 C 0.921875 -2.800781 0.34375 -4.304688 0.34375 -6.109375 Z M 3.34375 -6.109375 C 3.34375 -5.472656 3.441406 -4.890625 3.640625 -4.359375 C 3.835938 -3.828125 4.179688 -3.378906 4.671875 -3.015625 C 5.171875 -2.648438 5.78125 -2.46875 6.5 -2.46875 C 7.53125 -2.46875 8.3125 -2.820312 8.84375 -3.53125 C 9.375 -4.25 9.640625 -5.109375 9.640625 -6.109375 C 9.640625 -7.109375 9.367188 -7.960938 8.828125 -8.671875 C 8.285156 -9.390625 7.507812 -9.75 6.5 -9.75 C 5.488281 -9.75 4.707031 -9.390625 4.15625 -8.671875 C 3.613281 -7.960938 3.34375 -7.109375 3.34375 -6.109375 Z M 3.34375 -6.109375 "/></g></g></g><g fill="#667dea" fill-opacity="1"><g transform="translate(96.204267, 31.461369)"><g><path d="M 0.890625 -12.203125 L 5.34375 -12.203125 C 6.582031 -12.203125 7.585938 -11.878906 8.359375 -11.234375 C 9.128906 -10.597656 9.515625 -9.664062 9.515625 -8.4375 C 9.515625 -7.21875 9.125 -6.257812 8.34375 -5.5625 C 7.5625 -4.875 6.5625 -4.53125 5.34375 -4.53125 L 3.671875 -4.53125 L 3.671875 0 L 0.890625 0 Z M 3.671875 -6.75 L 4.453125 -6.75 C 5.078125 -6.75 5.585938 -6.875 5.984375 -7.125 C 6.378906 -7.375 6.578125 -7.785156 6.578125 -8.359375 C 6.578125 -8.941406 6.378906 -9.359375 5.984375 -9.609375 C 5.585938 -9.859375 5.078125 -9.984375 4.453125 -9.984375 L 3.671875 -9.984375 Z M 3.671875 -6.75 "/></g></g></g><g fill="#525d92" fill-opacity="1"><g transform="translate(66.90625, 37.282756)"><g><path d="M 2.734375 0 L 2.21875 -1.828125 L 1.703125 0 L 0.875 0 L -0.0625 -3.265625 L 0.765625 -3.265625 L 1.328125 -1.03125 L 1.34375 -1.03125 L 1.9375 -3.265625 L 2.5 -3.265625 L 3.09375 -1.03125 L 3.109375 -1.03125 L 3.671875 -3.265625 L 4.484375 -3.265625 L 3.5625 0 Z M 2.734375 0 "/></g></g></g><g fill="#525d92" fill-opacity="1"><g transform="translate(71.332239, 37.282756)"><g><path d="M 0.09375 -1.625 C 0.09375 -2.101562 0.253906 -2.503906 0.578125 -2.828125 C 0.898438 -3.160156 1.285156 -3.328125 1.734375 -3.328125 C 2.191406 -3.328125 2.578125 -3.160156 2.890625 -2.828125 C 3.210938 -2.503906 3.375 -2.101562 3.375 -1.625 C 3.375 -1.15625 3.21875 -0.753906 2.90625 -0.421875 C 2.59375 -0.0976562 2.203125 0.0625 1.734375 0.0625 C 1.253906 0.0625 0.859375 -0.0976562 0.546875 -0.421875 C 0.242188 -0.742188 0.09375 -1.144531 0.09375 -1.625 Z M 0.890625 -1.625 C 0.890625 -1.457031 0.914062 -1.300781 0.96875 -1.15625 C 1.019531 -1.019531 1.113281 -0.898438 1.25 -0.796875 C 1.382812 -0.703125 1.546875 -0.65625 1.734375 -0.65625 C 2.015625 -0.65625 2.222656 -0.75 2.359375 -0.9375 C 2.503906 -1.132812 2.578125 -1.363281 2.578125 -1.625 C 2.578125 -1.894531 2.503906 -2.125 2.359375 -2.3125 C 2.210938 -2.507812 2.003906 -2.609375 1.734375 -2.609375 C 1.460938 -2.609375 1.253906 -2.507812 1.109375 -2.3125 C 0.960938 -2.125 0.890625 -1.894531 0.890625 -1.625 Z M 0.890625 -1.625 "/></g></g></g><g fill="#525d92" fill-opacity="1"><g transform="translate(74.794858, 37.282756)"><g><path d="M 0.234375 -3.265625 L 1.40625 -3.265625 C 1.71875 -3.265625 1.972656 -3.179688 2.171875 -3.015625 C 2.367188 -2.847656 2.46875 -2.609375 2.46875 -2.296875 C 2.46875 -2.054688 2.40625 -1.851562 2.28125 -1.6875 C 2.164062 -1.53125 2.003906 -1.414062 1.796875 -1.34375 L 2.921875 0 L 1.984375 0 L 0.984375 -1.28125 L 0.984375 0 L 0.234375 0 Z M 0.984375 -1.8125 L 1.0625 -1.8125 C 1.132812 -1.8125 1.191406 -1.8125 1.234375 -1.8125 C 1.285156 -1.820312 1.34375 -1.832031 1.40625 -1.84375 C 1.46875 -1.863281 1.515625 -1.882812 1.546875 -1.90625 C 1.585938 -1.9375 1.617188 -1.976562 1.640625 -2.03125 C 1.671875 -2.09375 1.6875 -2.160156 1.6875 -2.234375 C 1.6875 -2.316406 1.671875 -2.382812 1.640625 -2.4375 C 1.617188 -2.5 1.585938 -2.539062 1.546875 -2.5625 C 1.515625 -2.59375 1.46875 -2.613281 1.40625 -2.625 C 1.34375 -2.644531 1.285156 -2.65625 1.234375 -2.65625 C 1.191406 -2.664062 1.132812 -2.671875 1.0625 -2.671875 L 0.984375 -2.671875 Z M 0.984375 -1.8125 "/></g></g></g><g fill="#525d92" fill-opacity="1"><g transform="translate(77.621806, 37.282756)"><g><path d="M 0.984375 -3.265625 L 0.984375 -0.65625 L 2.109375 -0.65625 L 2.109375 0 L 0.234375 0 L 0.234375 -3.265625 Z M 0.984375 -3.265625 "/></g></g></g><g fill="#525d92" fill-opacity="1"><g transform="translate(79.852568, 37.282756)"><g><path d="M 0.234375 -3.265625 L 1.1875 -3.265625 C 1.632812 -3.265625 2.019531 -3.109375 2.34375 -2.796875 C 2.664062 -2.484375 2.828125 -2.09375 2.828125 -1.625 C 2.828125 -1.15625 2.664062 -0.765625 2.34375 -0.453125 C 2.019531 -0.148438 1.632812 0 1.1875 0 L 0.234375 0 Z M 0.984375 -0.671875 L 1.09375 -0.671875 C 1.363281 -0.671875 1.582031 -0.757812 1.75 -0.9375 C 1.925781 -1.125 2.019531 -1.351562 2.03125 -1.625 C 2.03125 -1.90625 1.941406 -2.132812 1.765625 -2.3125 C 1.585938 -2.5 1.363281 -2.59375 1.09375 -2.59375 L 0.984375 -2.59375 Z M 0.984375 -0.671875 "/></g></g></g><g fill="#525d92" fill-opacity="1"><g transform="translate(82.766379, 37.282756)"><g/></g></g><g fill="#525d92" fill-opacity="1"><g transform="translate(83.84425, 37.282756)"><g><path d="M 0.09375 -1.625 C 0.09375 -2.101562 0.253906 -2.503906 0.578125 -2.828125 C 0.898438 -3.160156 1.285156 -3.328125 1.734375 -3.328125 C 2.191406 -3.328125 2.578125 -3.160156 2.890625 -2.828125 C 3.210938 -2.503906 3.375 -2.101562 3.375 -1.625 C 3.375 -1.15625 3.21875 -0.753906 2.90625 -0.421875 C 2.59375 -0.0976562 2.203125 0.0625 1.734375 0.0625 C 1.253906 0.0625 0.859375 -0.0976562 0.546875 -0.421875 C 0.242188 -0.742188 0.09375 -1.144531 0.09375 -1.625 Z M 0.890625 -1.625 C 0.890625 -1.457031 0.914062 -1.300781 0.96875 -1.15625 C 1.019531 -1.019531 1.113281 -0.898438 1.25 -0.796875 C 1.382812 -0.703125 1.546875 -0.65625 1.734375 -0.65625 C 2.015625 -0.65625 2.222656 -0.75 2.359375 -0.9375 C 2.503906 -1.132812 2.578125 -1.363281 2.578125 -1.625 C 2.578125 -1.894531 2.503906 -2.125 2.359375 -2.3125 C 2.210938 -2.507812 2.003906 -2.609375 1.734375 -2.609375 C 1.460938 -2.609375 1.253906 -2.507812 1.109375 -2.3125 C 0.960938 -2.125 0.890625 -1.894531 0.890625 -1.625 Z M 0.890625 -1.625 "/></g></g></g><g fill="#525d92" fill-opacity="1"><g transform="translate(87.306869, 37.282756)"><g><path d="M 2.125 -3.265625 L 2.125 -2.609375 L 0.984375 -2.609375 L 0.984375 -1.953125 L 2.03125 -1.953125 L 2.03125 -1.3125 L 0.984375 -1.3125 L 0.984375 0 L 0.234375 0 L 0.234375 -3.265625 Z M 2.125 -3.265625 "/></g></g></g><g fill="#525d92" fill-opacity="1"><g transform="translate(89.545528, 37.282756)"><g/></g></g><g fill="#525d92" fill-opacity="1"><g transform="translate(90.623399, 37.282756)"><g><path d="M 0.234375 -3.265625 L 1.421875 -3.265625 C 1.753906 -3.265625 2.023438 -3.175781 2.234375 -3 C 2.441406 -2.832031 2.546875 -2.582031 2.546875 -2.25 C 2.546875 -1.925781 2.441406 -1.671875 2.234375 -1.484375 C 2.023438 -1.296875 1.753906 -1.203125 1.421875 -1.203125 L 0.984375 -1.203125 L 0.984375 0 L 0.234375 0 Z M 0.984375 -1.796875 L 1.1875 -1.796875 C 1.351562 -1.796875 1.488281 -1.828125 1.59375 -1.890625 C 1.707031 -1.960938 1.765625 -2.078125 1.765625 -2.234375 C 1.765625 -2.390625 1.707031 -2.5 1.59375 -2.5625 C 1.488281 -2.632812 1.351562 -2.671875 1.1875 -2.671875 L 0.984375 -2.671875 Z M 0.984375 -1.796875 "/></g></g></g><g fill="#525d92" fill-opacity="1"><g transform="translate(93.252933, 37.282756)"><g><path d="M 0.234375 -3.265625 L 1.40625 -3.265625 C 1.71875 -3.265625 1.972656 -3.179688 2.171875 -3.015625 C 2.367188 -2.847656 2.46875 -2.609375 2.46875 -2.296875 C 2.46875 -2.054688 2.40625 -1.851562 2.28125 -1.6875 C 2.164062 -1.53125 2.003906 -1.414062 1.796875 -1.34375 L 2.921875 0 L 1.984375 0 L 0.984375 -1.28125 L 0.984375 0 L 0.234375 0 Z M 0.984375 -1.8125 L 1.0625 -1.8125 C 1.132812 -1.8125 1.191406 -1.8125 1.234375 -1.8125 C 1.285156 -1.820312 1.34375 -1.832031 1.40625 -1.84375 C 1.46875 -1.863281 1.515625 -1.882812 1.546875 -1.90625 C 1.585938 -1.9375 1.617188 -1.976562 1.640625 -2.03125 C 1.671875 -2.09375 1.6875 -2.160156 1.6875 -2.234375 C 1.6875 -2.316406 1.671875 -2.382812 1.640625 -2.4375 C 1.617188 -2.5 1.585938 -2.539062 1.546875 -2.5625 C 1.515625 -2.59375 1.46875 -2.613281 1.40625 -2.625 C 1.34375 -2.644531 1.285156 -2.65625 1.234375 -2.65625 C 1.191406 -2.664062 1.132812 -2.671875 1.0625 -2.671875 L 0.984375 -2.671875 Z M 0.984375 -1.8125 "/></g></g></g><g fill="#525d92" fill-opacity="1"><g transform="translate(96.079881, 37.282756)"><g><path d="M 0.09375 -1.625 C 0.09375 -2.101562 0.253906 -2.503906 0.578125 -2.828125 C 0.898438 -3.160156 1.285156 -3.328125 1.734375 -3.328125 C 2.191406 -3.328125 2.578125 -3.160156 2.890625 -2.828125 C 3.210938 -2.503906 3.375 -2.101562 3.375 -1.625 C 3.375 -1.15625 3.21875 -0.753906 2.90625 -0.421875 C 2.59375 -0.0976562 2.203125 0.0625 1.734375 0.0625 C 1.253906 0.0625 0.859375 -0.0976562 0.546875 -0.421875 C 0.242188 -0.742188 0.09375 -1.144531 0.09375 -1.625 Z M 0.890625 -1.625 C 0.890625 -1.457031 0.914062 -1.300781 0.96875 -1.15625 C 1.019531 -1.019531 1.113281 -0.898438 1.25 -0.796875 C 1.382812 -0.703125 1.546875 -0.65625 1.734375 -0.65625 C 2.015625 -0.65625 2.222656 -0.75 2.359375 -0.9375 C 2.503906 -1.132812 2.578125 -1.363281 2.578125 -1.625 C 2.578125 -1.894531 2.503906 -2.125 2.359375 -2.3125 C 2.210938 -2.507812 2.003906 -2.609375 1.734375 -2.609375 C 1.460938 -2.609375 1.253906 -2.507812 1.109375 -2.3125 C 0.960938 -2.125 0.890625 -1.894531 0.890625 -1.625 Z M 0.890625 -1.625 "/></g></g></g><g fill="#525d92" fill-opacity="1"><g transform="translate(99.5425, 37.282756)"><g><path d="M 2.9375 0 L 2.78125 -1.9375 L 2.765625 -1.9375 L 2.09375 -0.015625 L 1.65625 -0.015625 L 0.984375 -1.9375 L 0.953125 -1.9375 L 0.8125 0 L 0.0625 0 L 0.359375 -3.265625 L 1.140625 -3.265625 L 1.875 -1.375 L 2.59375 -3.265625 L 3.390625 -3.265625 L 3.671875 0 Z M 2.9375 0 "/></g></g></g><g fill="#525d92" fill-opacity="1"><g transform="translate(103.277547, 37.282756)"><g><path d="M 0.234375 -3.265625 L 1.421875 -3.265625 C 1.753906 -3.265625 2.023438 -3.175781 2.234375 -3 C 2.441406 -2.832031 2.546875 -2.582031 2.546875 -2.25 C 2.546875 -1.925781 2.441406 -1.671875 2.234375 -1.484375 C 2.023438 -1.296875 1.753906 -1.203125 1.421875 -1.203125 L 0.984375 -1.203125 L 0.984375 0 L 0.234375 0 Z M 0.984375 -1.796875 L 1.1875 -1.796875 C 1.351562 -1.796875 1.488281 -1.828125 1.59375 -1.890625 C 1.707031 -1.960938 1.765625 -2.078125 1.765625 -2.234375 C 1.765625 -2.390625 1.707031 -2.5 1.59375 -2.5625 C 1.488281 -2.632812 1.351562 -2.671875 1.1875 -2.671875 L 0.984375 -2.671875 Z M 0.984375 -1.796875 "/></g></g></g><g fill="#525d92" fill-opacity="1"><g transform="translate(105.907082, 37.282756)"><g><path d="M 0.03125 -2.609375 L 0.03125 -3.265625 L 2.328125 -3.265625 L 2.328125 -2.609375 L 1.546875 -2.609375 L 1.546875 0 L 0.8125 0 L 0.8125 -2.609375 Z M 0.03125 -2.609375 "/></g></g></g></svg>